<svg width="38" height="26" viewBox="0 0 38 26" fill="none" xmlns="http://www.w3.org/2000/svg">
    <rect x="0.5" y="0.5" width="37" height="25" rx="0.5" fill="white"/>
    <g clip-path="url(#clip0_3803_28268)">
        <path d="M38 9V17H0V9H38Z" fill="#FFCC00"/>
        <path d="M6.68262 10.4365L5.46875 12.0101H12.0857C12.4202 12.0101 12.4155 12.1315 12.2526 12.3425C12.0864 12.5567 11.8089 12.9301 11.64 13.1475C11.5542 13.2581 11.3994 13.4595 11.9135 13.4595H14.6194C14.6194 13.4595 15.0557 12.8937 15.421 12.4199C15.9184 11.776 15.4639 10.4365 13.6863 10.4365H6.68396H6.68262Z" fill="#D3072A"/>
        <path d="M4.97656 15.5628L7.41503 12.4023C7.41503 12.4023 10.1183 12.4023 10.4413 12.4023C10.7644 12.4023 10.7711 12.5238 10.6082 12.7348C10.442 12.949 10.1598 13.3186 9.9909 13.536C9.90511 13.6466 9.7496 13.848 10.2637 13.848H14.3175C13.9804 14.2885 12.8865 15.5628 10.9233 15.5628H4.97723H4.97656Z" fill="#D3072A"/>
        <path d="M18.9434 13.8477L17.6209 15.5625H14.1328C14.1328 15.5625 15.4546 13.8477 15.4559 13.8477H18.9441H18.9434Z" fill="#D3072A"/>
        <path d="M24.2859 13.4595H15.7539L18.0871 10.4365H21.5739L20.2367 12.1699H21.7938L23.1316 10.4365H26.6184L24.2859 13.4595Z" fill="#D3072A"/>
        <path d="M23.9876 13.8477L22.6645 15.5625H19.1777C19.1777 15.5625 20.4995 13.8477 20.5009 13.8477H23.9883H23.9876Z" fill="#D3072A"/>
        <path d="M0 14.5244H5.13901L4.85817 14.8889H0V14.5244Z" fill="#D3072A"/>
        <path d="M0 13.8477H5.66116L5.37964 14.2115H0V13.8477Z" fill="#D3072A"/>
        <path d="M0 15.2007H4.61687L4.33736 15.5626H0V15.2007Z" fill="#D3072A"/>
        <path d="M37.9998 14.8889H32.8809L33.1617 14.5244H37.9998V14.8889Z" fill="#D3072A"/>
        <path d="M37.9991 15.5626L32.3594 15.5632L32.6389 15.2007H37.9991V15.5626Z" fill="#D3072A"/>
        <path d="M33.6832 13.8477H37.9998V14.2121H33.4023L33.6832 13.8477Z" fill="#D3072A"/>
        <path d="M31.4497 10.4365L29.1171 13.4595H25.4219C25.4219 13.4595 27.7551 10.4365 27.7564 10.4365H31.4497Z" fill="#D3072A"/>
        <path d="M25.1216 13.8477C25.1216 13.8477 24.8669 14.1801 24.7429 14.34C24.3046 14.9046 24.692 15.5625 26.1217 15.5625H31.7219L33.045 13.8477H25.1216Z" fill="#D3072A"/>
    </g>
    <rect x="0.5" y="0.5" width="37" height="25" rx="0.5" stroke="#D8DDE1"/>
    <defs>
        <clipPath id="clip0_3803_28268">
            <rect width="38" height="8" fill="white" transform="translate(0 9)"/>
        </clipPath>
    </defs>
</svg>
