<svg width="37" height="26" viewBox="0 0 37 26" fill="none" xmlns="http://www.w3.org/2000/svg">
    <rect x="0.5" y="0.5" width="36" height="25" rx="0.5" fill="white"/>
    <g clip-path="url(#clip0_3803_28270)">
        <path d="M26.3332 11.1898H28.9734L30.2128 12.5229L31.4062 11.1898H33.9544L31.4639 13.9231L33.9886 16.6787H31.3375L30.1093 15.3345L28.8928 16.6787H26.3332L28.8355 13.9344L26.3332 11.1898ZM23.4991 11.1898H26.3332V13.0441H23.4991V14.7461H26.3332V16.6787H21.416V8.03223H26.3332V9.95938H23.4991V11.1898Z" fill="#FF6600"/>
        <path d="M19.3415 8.03223V11.5708H19.3187C18.8595 11.0556 18.2857 10.8766 17.62 10.8766C16.2563 10.8766 15.229 11.7814 14.8684 12.9776C14.4572 11.6595 13.3967 10.8518 11.8242 10.8518C10.5471 10.8518 9.53864 11.4113 9.01236 12.323V11.1899H6.37264V9.95964H9.25332V8.03223H4.01953V16.6788H6.37264V13.0441H8.71805C8.64583 13.3235 8.60981 13.6105 8.61081 13.8986C8.61081 15.7023 10.0225 16.9678 11.8242 16.9678C13.3392 16.9678 14.3376 16.2736 14.8657 15.0079H12.8492C12.5764 15.3882 12.3695 15.5011 11.8242 15.5011C11.1918 15.5011 10.6466 14.9626 10.6466 14.3243H14.7527C14.9308 15.7569 16.0742 16.9924 17.6432 16.9924C18.32 16.9924 18.9397 16.6674 19.3187 16.1188H19.3415V16.6785H21.4158V8.03223H19.3415ZM10.7121 13.07C10.843 12.5208 11.2794 12.1618 11.8242 12.1618C12.4239 12.1618 12.8381 12.5097 12.947 13.07H10.7121ZM18.0827 15.3622C17.3181 15.3622 16.843 14.6668 16.843 13.9408C16.843 13.1647 17.2563 12.4184 18.0827 12.4184C18.9397 12.4184 19.2811 13.1647 19.2811 13.9408C19.281 14.6768 18.9192 15.3622 18.0827 15.3622Z" fill="#652C8F"/>
    </g>
    <rect x="0.5" y="0.5" width="36" height="25" rx="0.5" stroke="#D8DDE1"/>
    <defs>
        <clipPath id="clip0_3803_28270">
            <rect width="30" height="9" fill="white" transform="translate(4 8)"/>
        </clipPath>
    </defs>
</svg>
