<svg width="59" height="50" viewBox="0 0 59 50" fill="none" xmlns="http://www.w3.org/2000/svg">
    <path d="M29.5846 42.9297C19.5738 42.9297 11.457 34.7464 11.457 24.6538C11.457 14.561 19.5738 6.37793 29.5846 6.37793C39.5953 6.37793 47.7121 14.561 47.7121 24.6538C47.7121 33.0525 42.0942 40.1269 34.4418 42.2674" stroke="#10111A" stroke-linecap="round" stroke-linejoin="round"/>
    <path d="M28.7285 49.2949C29.0047 49.2949 29.2285 49.0711 29.2285 48.7949C29.2285 48.5188 29.0047 48.2949 28.7285 48.2949L28.7285 49.2949ZM4.56867 26.3224C4.3458 26.1594 4.03295 26.2079 3.86991 26.4307L1.21294 30.0626C1.04989 30.2855 1.09839 30.5983 1.32126 30.7614C1.54413 30.9244 1.85697 30.8759 2.02002 30.653L4.38177 27.4247L7.6101 29.7865C7.83297 29.9495 8.14582 29.901 8.30886 29.6781C8.47191 29.4553 8.42341 29.1424 8.20054 28.9794L4.56867 26.3224ZM28.7285 48.2949C22.3219 48.2949 16.8657 46.2626 12.7498 42.5606C8.63189 38.8568 5.82199 33.4513 4.76755 26.6494L3.77935 26.8025C4.86292 33.7924 7.7641 39.4213 12.081 43.3041C16.3999 47.1886 22.1022 49.2949 28.7285 49.2949L28.7285 48.2949Z" fill="#1185ED"/>
    <path d="M30.2676 0.362305C29.9914 0.362305 29.7676 0.586162 29.7676 0.862305C29.7676 1.13845 29.9914 1.3623 30.2676 1.3623V0.362305ZM54.4274 23.3348C54.6503 23.4979 54.9631 23.4494 55.1262 23.2265L57.7832 19.5946C57.9462 19.3718 57.8977 19.0589 57.6748 18.8959C57.452 18.7328 57.1391 18.7813 56.9761 19.0042L54.6143 22.2325L51.386 19.8708C51.1631 19.7077 50.8503 19.7562 50.6872 19.9791C50.5242 20.202 50.5727 20.5148 50.7956 20.6778L54.4274 23.3348ZM30.2676 1.3623C36.6742 1.3623 42.1304 3.39461 46.2463 7.09663C50.3642 10.8004 53.1741 16.2059 54.2285 23.0079L55.2167 22.8547C54.1332 15.8649 51.232 10.2359 46.9151 6.35313C42.5962 2.4686 36.8939 0.362305 30.2676 0.362305V1.3623Z" fill="#1185ED"/>
    <ellipse cx="29.9257" cy="25.0008" rx="2.73623" ry="2.75862" stroke="#10111A" stroke-linecap="round" stroke-linejoin="round"/>
    <path d="M31.2941 22.2431L35.3984 12.5879" stroke="#10111A" stroke-linecap="round"/>
    <path d="M27.532 26.38L21.0334 29.1387" stroke="#10111A" stroke-linecap="round"/>
    <path d="M29.9258 8.44922V12.5872" stroke="#1185ED" stroke-linecap="round"/>
    <path d="M29.9258 37.4126V40.8609" stroke="#1185ED" stroke-linecap="round"/>
    <path d="M45.6602 25L42.2399 25" stroke="#1185ED" stroke-linecap="round"/>
    <path d="M17.6133 25L13.5089 25" stroke="#1185ED" stroke-linecap="round"/>
    <path d="M41 13.4902L38.4376 16.0736" stroke="#1185ED" stroke-linecap="round"/>
    <path d="M21.0723 33.584L18.5099 36.1673" stroke="#1185ED" stroke-linecap="round"/>
    <path d="M41 36.1665L38.4376 33.5831" stroke="#1185ED" stroke-linecap="round"/>
    <path d="M21.0723 16.0732L18.5099 13.4899" stroke="#1185ED" stroke-linecap="round"/>
</svg>
